<?xml version="1.0" standalone="no"?>
<!DOCTYPE svg PUBLIC "-//W3C//DTD SVG 20010904//EN"
 "http://www.w3.org/TR/2001/REC-SVG-20010904/DTD/svg10.dtd">
<svg version="1.0" xmlns="http://www.w3.org/2000/svg"
 width="800.000000pt" height="800.000000pt" viewBox="0 0 800.000000 800.000000"
 preserveAspectRatio="xMidYMid meet">
<metadata>
Created by potrace 1.14, written by Peter Selinger 2001-2017
</metadata>
<g transform="translate(0.000000,800.000000) scale(0.100000,-0.100000)"
fill="#000000" stroke="none">
<path d="M0 4000 l0 -4000 4000 0 4000 0 0 4000 0 4000 -4000 0 -4000 0 0
-4000z m2856 2155 c373 -49 634 -167 854 -384 107 -106 174 -196 238 -321 151
-290 183 -542 186 -1460 1 -448 -1 -532 -17 -645 -42 -301 -92 -490 -170 -639
-90 -175 -245 -346 -411 -458 -110 -73 -153 -95 -281 -143 -283 -105 -641
-138 -1107 -100 -451 36 -725 120 -888 272 -135 125 -207 268 -256 513 -16 78
-18 220 -21 1733 l-4 1647 884 0 c717 0 904 -3 993 -15z m4424 -350 l0 -365
-784 0 c-856 0 -886 -2 -987 -57 -98 -53 -143 -139 -159 -302 -5 -53 -10 -223
-10 -378 l0 -283 764 0 c421 0 767 -3 769 -7 2 -5 -9 -159 -24 -343 -15 -184
-28 -345 -29 -357 l0 -23 -737 -2 -738 -3 -3 -847 -2 -848 -405 0 -405 0 0
1723 c0 1194 3 1750 11 1812 34 278 143 456 332 545 95 45 212 75 337 88 47 5
532 10 1078 11 l992 1 0 -365z"/>
<path d="M1802 4223 l3 -1218 26 -55 c37 -79 72 -115 143 -150 114 -56 230
-74 491 -74 212 -1 236 1 310 22 142 41 221 86 311 176 119 119 168 224 199
432 46 310 43 1244 -6 1504 -48 257 -188 433 -417 526 -117 47 -201 54 -649
54 l-413 0 2 -1217z"/>
</g>
</svg>
